<?xml version="1.0" standalone="no"?>
<!DOCTYPE svg PUBLIC "-//W3C//DTD SVG 20010904//EN"
 "http://www.w3.org/TR/2001/REC-SVG-20010904/DTD/svg10.dtd">
<svg version="1.0" xmlns="http://www.w3.org/2000/svg"
 width="739.000000pt" height="172.000000pt" viewBox="0 0 739.000000 172.000000"
 preserveAspectRatio="xMidYMid meet">

<g transform="translate(0.000000,172.000000) scale(0.100000,-0.100000)"
fill="#000000" stroke="none">
<path d="M6700 1701 c0 -27 48 -81 87 -97 48 -20 150 -17 200 6 40 18 83 68
83 98 0 22 -60 14 -92 -13 -25 -21 -40 -25 -97 -25 -59 0 -70 3 -91 25 -30 32
-90 36 -90 6z"/>
<path d="M1447 1578 c-21 -6 -51 -23 -66 -39 -44 -44 -53 -122 -49 -426 4
-305 8 -320 93 -363 l50 -25 375 0 c542 0 505 -31 505 430 0 290 -1 313 -20
350 -13 27 -33 47 -60 60 -38 19 -62 20 -415 22 -231 1 -390 -3 -413 -9z m787
-91 c28 -21 39 -146 33 -395 -6 -248 -11 -266 -69 -277 -18 -3 -189 -5 -380
-3 -318 3 -349 5 -365 21 -16 16 -18 45 -21 295 -2 152 0 291 3 309 12 65 -2
63 409 63 288 0 376 -3 390 -13z"/>
<path d="M10 1155 c0 -462 -7 -415 63 -418 l22 -1 3 377 c1 223 6 377 12 377
12 0 3 16 217 -385 l191 -360 52 0 53 0 113 210 c63 116 153 283 200 373 48
89 90 162 95 162 5 0 9 -168 9 -374 l0 -374 28 -4 c67 -9 62 -40 62 418 l0
414 -83 0 -84 0 -100 -187 c-206 -385 -287 -533 -292 -533 -7 0 -18 20 -223
413 l-161 307 -89 0 -88 0 0 -415z"/>
<path d="M2622 1553 c-65 -32 -67 -42 -70 -400 l-3 -323 -25 -6 c-22 -6 -25
-11 -22 -48 l3 -41 553 -3 552 -2 0 45 c0 41 -2 45 -25 45 l-25 0 0 375 0 375
-452 0 c-398 0 -457 -2 -486 -17z m838 -380 c0 -171 3 -318 6 -327 6 -14 -35
-16 -411 -16 l-417 0 4 308 c3 327 5 337 51 344 12 2 190 3 394 3 l373 0 0
-312z"/>
<path d="M3790 1155 l0 -415 23 0 c12 0 32 -3 44 -6 l23 -6 2 193 3 194 398 3
397 2 0 -190 0 -190 24 -6 c13 -3 35 -4 47 -2 l24 3 3 418 2 418 -47 -3 -48
-3 -3 -182 -2 -183 -400 0 -400 0 0 185 0 185 -45 0 -45 0 0 -415z"/>
<path d="M4980 1155 l0 -415 23 -5 c12 -3 214 -5 447 -3 406 3 427 4 460 23
60 35 70 69 70 240 0 172 -11 208 -70 237 -32 16 -74 18 -432 18 l-398 0 0
160 0 160 -50 0 -50 0 0 -415z m898 -13 c8 -11 12 -59 12 -153 0 -131 -1 -139
-22 -153 -19 -14 -75 -16 -405 -16 l-383 0 0 170 0 169 133 4 c72 2 249 2 392
-1 223 -3 262 -6 273 -20z"/>
<path d="M6090 1155 l0 -415 23 0 c12 0 32 -3 45 -6 l22 -6 0 421 0 421 -45 0
-45 0 0 -415z"/>
<path d="M6390 1150 l0 -420 78 0 c48 0 84 5 94 13 16 12 114 117 324 342 325
350 388 417 391 409 1 -5 4 -175 5 -379 l3 -370 48 -3 47 -3 0 415 0 416 -84
0 -84 0 -139 -148 c-128 -137 -426 -459 -520 -561 -28 -31 -45 -42 -56 -38
-15 6 -17 42 -17 377 l0 370 -45 0 -45 0 0 -420z"/>
<path d="M980 206 l0 -185 53 -3 c28 -2 109 -2 180 0 117 3 127 5 127 22 0 18
-10 20 -147 22 l-148 3 -1 145 c-1 192 1 180 -34 180 l-30 0 0 -184z"/>
<path d="M1506 369 c-26 -20 -26 -21 -26 -165 0 -129 2 -146 19 -163 27 -27
87 -34 257 -29 191 4 184 -3 184 193 0 193 11 185 -230 185 -164 0 -179 -2
-204 -21z m362 -27 c9 -7 12 -42 10 -143 l-3 -134 -165 0 -165 0 -3 134 c-2
101 1 136 10 143 17 10 299 10 316 0z"/>
<path d="M2130 229 c0 -89 4 -169 10 -179 15 -29 72 -40 200 -40 137 0 182 10
198 46 8 15 12 84 12 179 l0 155 -30 0 -30 0 -2 -162 -3 -163 -145 0 -145 0
-3 163 -2 162 -30 0 -30 0 0 -161z"/>
<path d="M2730 205 l0 -185 30 0 29 0 3 146 3 147 169 -147 c115 -99 176 -146
192 -146 l24 0 0 185 0 185 -30 0 -30 0 0 -146 0 -145 -117 103 c-191 168
-217 188 -246 188 l-27 0 0 -185z"/>
<path d="M3365 365 c-24 -23 -25 -29 -25 -165 0 -125 2 -142 19 -159 27 -27
85 -34 246 -30 172 5 175 8 175 135 l0 84 -110 0 c-103 0 -110 -1 -110 -20 0
-17 8 -19 78 -22 l77 -3 3 -62 3 -63 -149 0 c-102 0 -152 4 -160 12 -8 8 -12
52 -12 133 0 81 4 125 12 133 13 13 262 18 292 6 9 -3 16 -17 16 -30 0 -27 0
-27 34 -14 31 12 33 38 6 68 -20 21 -29 22 -196 22 -172 0 -175 0 -199 -25z"/>
<path d="M3966 382 c-2 -4 -4 -87 -3 -185 l1 -177 193 0 c186 0 193 1 193 20
0 19 -7 20 -160 20 l-160 0 0 65 0 65 95 0 c95 0 95 0 95 25 0 25 0 25 -95 25
l-95 0 0 55 0 55 155 0 c148 0 155 1 155 20 0 19 -7 20 -184 20 -102 0 -187
-4 -190 -8z"/>
<path d="M4852 208 l3 -183 178 -3 c177 -2 177 -2 202 22 35 35 35 107 0 142
-24 24 -24 25 -5 44 28 28 28 112 0 140 -19 19 -33 20 -200 20 l-180 0 2 -182z
m328 122 c22 -22 25 -42 10 -71 -10 -17 -22 -19 -140 -19 l-130 0 0 55 0 55
120 0 c107 0 122 -2 140 -20z m4 -156 c9 -8 16 -31 16 -49 0 -55 -25 -65 -162
-65 l-118 0 0 65 0 65 124 0 c100 0 128 -3 140 -16z"/>
<path d="M5497 263 c-41 -71 -89 -154 -107 -185 l-32 -58 31 0 c25 0 34 7 57
45 l26 46 136 -3 137 -3 23 -42 c20 -37 28 -43 57 -43 l33 0 -93 162 c-122
212 -119 208 -159 208 -33 0 -37 -4 -109 -127z m160 -1 c64 -110 68 -102 -52
-102 -58 0 -105 2 -105 4 0 5 59 110 87 154 7 12 18 20 23 17 4 -3 26 -36 47
-73z"/>
<path d="M6000 206 c0 -176 1 -185 20 -191 33 -10 40 3 40 76 l0 69 61 0 61 0
72 -69 c52 -50 81 -70 108 -75 20 -4 39 -3 42 2 3 5 -27 37 -66 72 l-71 64 49
11 c59 12 74 35 74 116 0 42 -5 63 -21 83 l-20 26 -175 0 -174 0 0 -184z m320
124 c14 -22 12 -83 -3 -103 -11 -15 -28 -17 -132 -15 l-120 3 -3 54 c-5 85 -9
83 128 79 94 -2 123 -6 130 -18z"/>
</g>
</svg>
